<svg xmlns="http://www.w3.org/2000/svg" xmlns:xlink="http://www.w3.org/1999/xlink" width="400" height="400" viewBox="0 0 400 400">
<rect data-name="background" width="100%" height="100%" fill="none"/><g data-name="icon" fill="#000000" data="id:798078" transform="translate(-13.35627421213658,132.05714944354864) scale(27.177140222580537)">
    <title>maze</title><g><polygon points="2.77 1.478 3.325 1.478 3.325 1.285 2.964 1.285 2.964 0.933 2.395 0.933 2.395 1.126 2.77 1.126 2.77 1.478"/><polygon points="2.396 1.93 2.59 1.93 2.59 1.361 2.237 1.361 2.237 1 2.044 1 2.044 1.555 2.396 1.555 2.396 1.93"/><polygon points="3.164 2.205 3.358 2.205 3.358 1.845 3.71 1.845 3.71 1.276 3.516 1.276 3.516 1.651 3.164 1.651 3.164 2.205"/><polygon points="2.763 2.059 2.413 2.059 2.403 2.498 2.597 2.502 2.603 2.253 2.957 2.253 2.957 1.684 2.763 1.684 2.763 2.059"/><polygon points="4.067 2.395 3.874 2.395 3.874 2.77 3.522 2.77 3.522 3.325 3.715 3.325 3.715 2.964 4.067 2.964 4.067 2.395"/><polygon points="3.513 2.396 3.07 2.396 3.07 2.59 3.707 2.59 3.707 2.237 4 2.237 4 2.044 3.513 2.044 3.513 2.396"/><polygon points="3.724 3.71 3.724 3.516 3.349 3.516 3.349 3.083 2.795 3.083 2.795 3.277 3.155 3.277 3.155 3.71 3.724 3.71"/><polygon points="2.747 2.503 2.747 2.942 3.316 2.942 3.316 2.748 2.941 2.748 2.941 2.503 2.747 2.503"/><polygon points="2.605 4.067 2.605 3.874 2.23 3.874 2.23 3.522 1.675 3.522 1.675 3.715 2.036 3.715 2.036 4.067 2.605 4.067"/><polygon points="2.956 4 2.956 3.445 2.604 3.445 2.604 3.07 2.41 3.07 2.41 3.639 2.763 3.639 2.763 4 2.956 4"/><polygon points="1.484 3.349 1.836 3.349 1.836 2.795 1.642 2.795 1.642 3.155 1.29 3.155 1.29 3.724 1.484 3.724 1.484 3.349"/><polygon points="2.043 3.316 2.237 3.316 2.237 2.876 2.6 2.876 2.6 2.682 2.043 2.682 2.043 3.316"/><polygon points="1.126 2.23 1.497 2.23 1.497 1.675 1.304 1.675 1.304 2.036 0.933 2.036 0.933 2.605 1.126 2.605 1.126 2.23"/><polygon points="1.304 2.763 1 2.763 1 2.956 1.497 2.956 1.497 2.604 1.93 2.604 1.93 2.41 1.304 2.41 1.304 2.763"/><polygon points="1.651 1.909 2.205 1.909 2.205 1.716 1.845 1.716 1.845 1.29 1.276 1.29 1.276 1.484 1.651 1.484 1.651 1.909"/><polygon points="1.684 2.237 2.059 2.237 2.059 2.492 2.253 2.492 2.253 2.043 1.684 2.043 1.684 2.237"/></g>
    </g><g data-name="business_name" fill="#000000" data="id:168" transform="translate(118.7694787624508,164.34653394117328) scale(1.4181969902314098)"><path d="M29.96,14.16l-2.8,3.28q-1.64-1.68-3.92-2.64t-4.8-0.96q-3.28,0-5.98,1.48t-4.22,4.04q-1.56,2.68-1.56,5.96q0,3.12,1.68,5.76q1.6,2.48,4.3,3.94t5.82,1.46q2.88,0,5.36-1.24t4.12-3.44l2.68,3.64q-2.28,2.56-5.46,3.98t-6.74,1.42q-4.44,0-8.16-2.16q-3.64-2.08-5.72-5.72q-2.16-3.72-2.16-8.16q0-4.28,2.28-7.88q2.16-3.44,5.86-5.46t7.94-2.02q3.32,0,6.32,1.28q2.92,1.2,5.16,3.44z M52.72,40.16l-15.28,0l0-20.72l4.28,0l0,16.56l11,0l0,4.16z M70.64,33.28l0.56,0l-4.04-7.68l-4.92,9.48q1.36-0.72,3.08-1.16q2.48-0.64,5.32-0.64z M65.04,21.56l-1.36-2.6l4.44,0l11.2,21.2l-4.52,0l-1.64-3.12l-2.48,0q-2.36,0-5,0.56q-2.24,0.44-4.08,1.2q-1.68,0.64-2.04,1.12l-0.12,0.24l-4.32,0z M101.6,21.36l-2.76,3.2q-2.2-1.8-6.16-1.8q-1.56,0-2.88,0.68t-1.32,1.56q0,0.72,0.28,1.08q0.36,0.52,1.28,0.72q1.04,0.28,2.96,0.28q4.16,0,6.56,0.92q2.12,0.76,2.96,2.28q0.68,1.24,0.68,3.16q0,3.6-3,5.52q-2.84,1.84-7.48,1.84q-2.68,0-5.18-1.18t-4.22-3.22l2.96-3l0.36,0.4q0.84,0.88,1.36,1.36q0.92,0.76,1.92,1.16q1.24,0.48,2.8,0.48q2.88,0,4.64-0.88t1.76-2.48q0-1.36-1.56-1.84q-1.4-0.44-4.84-0.44q-4,0-6.12-1.4q-2.44-1.52-2.44-4.76q0-1.84,1.2-3.28q1.12-1.4,3.08-2.18t4.28-0.78q2.48,0,4.44,0.52q2.32,0.6,4.44,2.08z M126.28,21.36l-2.76,3.2q-2.2-1.8-6.16-1.8q-1.56,0-2.88,0.68t-1.32,1.56q0,0.72,0.28,1.08q0.36,0.52,1.28,0.72q1.04,0.28,2.96,0.28q4.16,0,6.56,0.92q2.12,0.76,2.96,2.28q0.68,1.24,0.68,3.16q0,3.6-3,5.52q-2.84,1.84-7.48,1.84q-2.68,0-5.18-1.18t-4.22-3.22l2.96-3l0.36,0.4q0.84,0.88,1.36,1.36q0.92,0.76,1.92,1.16q1.24,0.48,2.8,0.48q2.88,0,4.64-0.88t1.76-2.48q0-1.36-1.56-1.84q-1.4-0.44-4.84-0.44q-4,0-6.12-1.4q-2.44-1.52-2.44-4.76q0-1.84,1.2-3.28q1.12-1.4,3.08-2.18t4.28-0.78q2.48,0,4.44,0.52q2.32,0.6,4.44,2.08z M139.16,40.16l-4.08,0l0-20.72l4.08,0l0,20.72z M152.84,32.72l0,7.44l-4.08,0l0-20.72l15.52,0l0,4.12l-11.44,0l0,5.04q1.24-0.72,3-1q1.36-0.2,3.48-0.2l2.24,0l0,4.12l-2.24,0q-2.76,0-4,0.24q-1.08,0.2-2.48,0.96z M189.84,19.44l-8.56,12.36l0,8.36l-4.08,0l0-8.36l-8.72-12.36l5.2,0l5.52,8.16l5.68-8.16l4.96,0z"/></g></svg>