<svg xmlns="http://www.w3.org/2000/svg" xmlns:xlink="http://www.w3.org/1999/xlink" width="400" height="400" viewBox="0 0 400 400">
<rect data-name="background" width="100%" height="100%" fill="none"/><g data-name="icon" fill="#000000" data="id:384979" transform="translate(10.065392110841158,148.05483122478753) scale(1.0388825597287783)">
  <g><path d="M50.333,2.553c-15.686,0-29.611,7.656-38.255,19.422c-1.293,1.632-2.424,3.398-3.371,5.277   C4.998,34.01,2.885,41.763,2.885,50.001c0,26.163,21.285,47.448,47.448,47.448s47.448-21.285,47.448-47.448   S76.496,2.553,50.333,2.553z M44.928,61.67c-7.897,0-14.322-6.506-14.322-14.503s6.425-14.503,14.322-14.503   S59.25,39.17,59.25,47.167S52.825,61.67,44.928,61.67z M44.928,28.412c-10.242,0-18.574,8.413-18.574,18.755   s8.332,18.755,18.574,18.755c0.116,0,0.228-0.016,0.343-0.018c-2.924,1.144-6.097,1.777-9.415,1.777   c-14.448,0-26.203-11.895-26.203-26.515c0-4.277,1.013-8.317,2.798-11.899c0.911-1.658,1.931-3.248,3.045-4.766   c4.808-6.003,12.147-9.85,20.36-9.85c14.011,0,25.488,11.185,26.171,25.192C59.196,33.132,52.599,28.412,44.928,28.412z    M50.333,93.197c-23.313,0-42.36-18.568-43.158-41.69c4.214,11.893,15.478,20.427,28.681,20.427   c16.794,0,30.456-13.802,30.456-30.767S52.649,10.4,35.855,10.4c-1.047,0-2.082,0.054-3.103,0.158   c5.374-2.405,11.321-3.754,17.58-3.754c23.818,0,43.196,19.378,43.196,43.196S74.151,93.197,50.333,93.197z"/></g>
  </g><g data-name="business_name" fill="#000000" data="id:307" transform="translate(132.39353216505444,128.37687049341582) scale(1.9109454042402865)"><path d="M11.9921875,48.359375q-2.890625,0-5.09765625-1.19140625t-3.4375-3.6328125t-1.23046875-6.15234375q0-3.88671875,1.298828125-6.357421875t3.583984375-3.662109375t5.1953125-1.19140625q1.6015625,0,3.095703125,0.322265625t2.451171875,0.810546875l-0.9765625,2.71484375q-0.9765625-0.390625-2.255859375-0.703125t-2.392578125-0.3125q-2.2265625,0-3.701171875,0.95703125t-2.20703125,2.8125t-0.732421875,4.5703125q0,2.59765625,0.712890625,4.43359375t2.12890625,2.802734375t3.544921875,0.966796875q1.69921875,0,3.06640625-0.361328125t2.48046875-0.849609375l0,2.890625q-1.07421875,0.546875-2.392578125,0.83984375t-3.134765625,0.29296875z M25.83984375,47.96875l-3.26171875,0l0-30.390625l3.26171875,0l0,30.390625z M40.68359375,26.2109375q3.828125,0,5.68359375,1.71875t1.85546875,5.48828125l0,14.55078125l-2.36328125,0l-0.625-3.1640625l-0.15625,0q-0.8984375,1.171875-1.875,1.962890625t-2.255859375,1.19140625t-3.134765625,0.400390625q-1.953125,0-3.466796875-0.68359375t-2.3828125-2.0703125t-0.869140625-3.515625q0-3.203125,2.5390625-4.921875t7.734375-1.875l3.69140625-0.15625l0-1.30859375q0-2.7734375-1.19140625-3.88671875t-3.359375-1.11328125q-1.6796875,0-3.203125,0.48828125t-2.890625,1.15234375l-0.99609375-2.4609375q1.4453125-0.7421875,3.3203125-1.26953125t3.9453125-0.52734375z M45.01953125,37.421875l-3.26171875,0.13671875q-4.00390625,0.15625-5.64453125,1.30859375t-1.640625,3.26171875q0,1.8359375,1.11328125,2.71484375t2.94921875,0.87890625q2.8515625,0,4.66796875-1.58203125t1.81640625-4.74609375l0-1.97265625z M68.75,42.109375q0,2.05078125-1.025390625,3.447265625t-2.9296875,2.099609375t-4.541015625,0.703125q-2.24609375,0-3.88671875-0.3515625t-2.87109375-0.99609375l0-2.98828125q1.30859375,0.64453125,3.125,1.171875t3.7109375,0.52734375q2.7734375,0,4.0234375-0.8984375t1.25-2.44140625q0-0.87890625-0.498046875-1.552734375t-1.669921875-1.30859375t-3.2421875-1.396484375q-2.05078125-0.78125-3.544921875-1.552734375t-2.3046875-1.884765625t-0.810546875-2.890625q0-2.71484375,2.197265625-4.169921875t5.771484375-1.455078125q1.93359375,0,3.623046875,0.380859375t3.154296875,1.025390625l-1.09375,2.59765625q-1.328125-0.56640625-2.83203125-0.95703125t-3.06640625-0.390625q-2.24609375,0-3.447265625,0.7421875t-1.201171875,2.03125q0,0.99609375,0.556640625,1.640625t1.787109375,1.2109375t3.2421875,1.328125q2.01171875,0.7421875,3.4765625,1.533203125t2.255859375,1.9140625t0.791015625,2.880859375z M87.8125,42.109375q0,2.05078125-1.025390625,3.447265625t-2.9296875,2.099609375t-4.541015625,0.703125q-2.24609375,0-3.88671875-0.3515625t-2.87109375-0.99609375l0-2.98828125q1.30859375,0.64453125,3.125,1.171875t3.7109375,0.52734375q2.7734375,0,4.0234375-0.8984375t1.25-2.44140625q0-0.87890625-0.498046875-1.552734375t-1.669921875-1.30859375t-3.2421875-1.396484375q-2.05078125-0.78125-3.544921875-1.552734375t-2.3046875-1.884765625t-0.810546875-2.890625q0-2.71484375,2.197265625-4.169921875t5.771484375-1.455078125q1.93359375,0,3.623046875,0.380859375t3.154296875,1.025390625l-1.09375,2.59765625q-1.328125-0.56640625-2.83203125-0.95703125t-3.06640625-0.390625q-2.24609375,0-3.447265625,0.7421875t-1.201171875,2.03125q0,0.99609375,0.556640625,1.640625t1.787109375,1.2109375t3.2421875,1.328125q2.01171875,0.7421875,3.4765625,1.533203125t2.255859375,1.9140625t0.791015625,2.880859375z M96.26953125,26.5625l0,21.40625l-3.2421875,0l0-21.40625l3.2421875,0z M94.6875,18.5546875q0.80078125,0,1.376953125,0.517578125t0.576171875,1.611328125q0,1.07421875-0.576171875,1.6015625t-1.376953125,0.52734375q-0.83984375,0-1.396484375-0.52734375t-0.556640625-1.6015625q0-1.09375,0.556640625-1.611328125t1.396484375-0.517578125z M112.65625,29.1015625l-5.33203125,0l0,18.8671875l-3.2421875,0l0-18.8671875l-3.7890625,0l0-1.5625l3.7890625-1.07421875l0-1.42578125q0-2.6953125,0.80078125-4.384765625t2.32421875-2.490234375t3.7109375-0.80078125q1.23046875,0,2.255859375,0.21484375t1.806640625,0.48828125l-0.83984375,2.55859375q-0.6640625-0.21484375-1.494140625-0.400390625t-1.689453125-0.185546875q-1.85546875,0-2.744140625,1.201171875t-0.888671875,3.759765625l0,1.5625l5.33203125,0l0,2.5390625z M113.203125,26.5625l3.4765625,0l4.7265625,12.421875q0.41015625,1.09375,0.76171875,2.099609375t0.625,1.923828125t0.4296875,1.77734375l0.13671875,0q0.2734375-0.9765625,0.78125-2.568359375t1.09375-3.251953125l4.47265625-12.40234375l3.49609375,0l-9.31640625,24.55078125q-0.7421875,1.97265625-1.728515625,3.4375t-2.392578125,2.255859375t-3.3984375,0.791015625q-0.91796875,0-1.62109375-0.107421875t-1.2109375-0.244140625l0-2.59765625q0.4296875,0.09765625,1.044921875,0.17578125t1.279296875,0.078125q1.2109375,0,2.099609375-0.458984375t1.533203125-1.337890625t1.11328125-2.08984375l1.171875-3.0078125z"/></g></svg>